<svg xmlns="http://www.w3.org/2000/svg" viewBox="0 0 20403 5736" width="473" height="133">
	<style>
		tspan { white-space:pre }
		.shp0 { fill: #fbffff } 
		.shp1 { fill: #f5d402 } 
		.shp2 { fill: #d61a0c } 
		.shp3 { fill: #191497 } 
		.shp4 { fill: #606062 } 
	</style>
	<g id="Layer_x0020_1">
		<path id="Layer1" class="shp0" d="M6112 1646L4098 1646C3875 1096 3975 546 4839 -3L3124 -3C2264 546 2117 1097 2270 1646L1433 1646C734 1646 167 2208 167 2902C167 3596 734 4159 1433 4159L3624 4159C3745 4684 3574 5211 2752 5737L5054 5737C5880 5211 6006 4685 5821 4159L6113 4159C6812 4159 7379 3597 7379 2902C7379 2208 6812 1646 6113 1646L6112 1646Z" />
		<path id="Layer2" fill-rule="evenodd" class="shp1" d="M3365 -4L3364.25 -4C3364.5 -4.33 3364.75 -4.67 3365 -5L3365 -4ZM3364.25 -4C1925.05 1908.67 4929.75 3822.33 3489 5735L1009 5735L1009 4751L1 4751L1 1001L1009 1001L1009 -4L3364.25 -4ZM2907 3835L2907 2586C2907 2345 2848 2174 2748 2063C2646 1952 2502 1905 2341 1905C2145 1905 1994 2029 1902 2173C1812 1982 1646 1904 1468 1905C1294 1905 1148 1993 1042 2140L1042 1954L586 1954L586 3835L1065 3835L1065 2749C1065 2576 1112 2479 1164 2425C1216 2370 1277 2357 1310 2357C1418 2359 1463 2400 1493 2467C1522 2535 1525 2633 1525 2731L1525 3835L1986 3835L1986 2791C1986 2678 1996 2565 2033 2485C2069 2405 2124 2358 2226 2357C2333 2359 2379 2398 2410 2470C2440 2543 2445 2652 2445 2773L2445 3835L2907 3835Z" />
		<path id="Layer3" fill-rule="evenodd" class="shp2" d="M7711 1001L7711 4746L6716 4746L6716 5736L4427 5736C5875 3822 2876 1909 4324 -4L6710 -4L6710 1001L7711 1001ZM6878 3173C7011 3037 7078 2852 7078 2663C7078 2462 7015 2270 6879 2128C6743 1986 6536 1897 6258 1897C6065 1897 5888 1949 5766 2067L5766 1934L5288 1934L5288 3843L5789 3843L5789 3230C5914 3341 6097 3398 6286 3398C6546 3398 6746 3310 6879 3172L6878 3173Z" />
		<path id="Layer4" class="shp3" d="M4162 -3L3526 -3C2085 1910 5091 3824 3650 5737L4264 5737C5712 3824 2713 1910 4161 -3L4162 -3Z" />
		<path id="Layer5" class="shp2" d="M6241 2294C6077 2294 5976 2340 5913 2406C5850 2472 5825 2561 5824 2655C5825 2747 5851 2834 5915 2898C5979 2963 6082 3007 6244 3008C6407 3007 6509 2963 6572 2899C6634 2835 6660 2748 6660 2655C6660 2564 6632 2475 6567 2408C6503 2341 6399 2294 6240 2294L6241 2294Z" />
		<path id="Layer6" class="shp4" d="M9283 2866L9446 2866L9846 3874L10246 2866L10407 2866L10407 4016L10297 4016L10297 3023L10294 3023L9898 4016L9795 4016L9397 3023L9394 3023L9394 4016L9283 4016L9283 2866Z" />
		<path id="Layer7" class="shp4" d="M10568 3185L10670 3185L10670 4016L10568 4016L10568 3185ZM10568 2866L10670 2866L10670 3029L10568 3029L10568 2866Z" />
		<path id="Layer8" class="shp4" d="M10809 3185L10912 3185L10912 3328L10915 3328C10952 3228 11065 3160 11183 3160C11418 3160 11489 3282 11489 3481L11489 4016L11387 4016L11387 3498C11387 3355 11340 3247 11175 3247C11013 3247 10915 3369 10912 3532L10912 4016L10809 4016L10809 3185Z" />
		<path id="Layer9" class="shp4" d="M11630 3185L11733 3185L11733 4016L11630 4016L11630 3185ZM11630 2866L11733 2866L11733 3029L11630 3029L11630 2866Z" />
		<path id="Layer10" class="shp4" d="M12372 3428C12367 3302 12270 3246 12153 3246C12063 3246 11955 3281 11955 3389C11955 3479 12059 3511 12128 3528L12265 3559C12381 3577 12503 3644 12503 3789C12503 3970 12324 4039 12168 4039C11973 4039 11840 3949 11824 3746L11926 3746C11934 3882 12036 3953 12172 3953C12268 3953 12400 3912 12400 3796C12400 3700 12309 3667 12217 3644L12085 3615C11952 3579 11852 3535 11852 3393C11852 3224 12019 3159 12167 3159C12334 3159 12466 3246 12473 3427L12371 3427L12372 3428Z" />
		<path id="Layer11" class="shp4" d="M12755 3185L12926 3185L12926 3270L12755 3270L12755 3830C12755 3896 12765 3935 12838 3939C12867 3939 12896 3938 12926 3935L12926 4022C12895 4022 12866 4025 12835 4025C12699 4025 12651 3980 12653 3838L12653 3270L12508 3270L12508 3185L12653 3185L12653 2935L12755 2935L12755 3185Z" />
		<path id="Layer12" fill-rule="evenodd" class="shp4" d="M13039 3628C13041 3776 13119 3954 13315 3954C13464 3954 13546 3868 13577 3742L13680 3742C13636 3930 13526 4040 13315 4040C13049 4040 12937 3837 12937 3600C12937 3381 13049 3160 13315 3160C13584 3160 13691 3394 13683 3627L13039 3627L13039 3628ZM13581 3542C13576 3390 13480 3246 13315 3246C13148 3246 13055 3391 13039 3542L13581 3542Z" />
		<path id="Layer13" class="shp4" d="M13777 3185L13871 3185L13871 3379L13875 3379C13927 3246 14040 3167 14191 3173L14191 3275C14006 3265 13880 3401 13880 3573L13880 4015L13778 4015L13778 3184L13777 3185Z" />
		<path id="Layer14" class="shp4" d="M14245 3185L14347 3185L14347 4016L14245 4016L14245 3185ZM14245 2866L14347 2866L14347 3029L14245 3029L14245 2866Z" />
		<path id="Layer15" fill-rule="evenodd" class="shp4" d="M15239 3600C15239 3838 15099 4039 14843 4039C14587 4039 14447 3838 14447 3600C14447 3362 14586 3160 14843 3160C15099 3160 15239 3362 15239 3600ZM14550 3600C14550 3777 14648 3954 14844 3954C15040 3954 15137 3777 15137 3600C15137 3423 15039 3246 14844 3246C14648 3246 14550 3422 14550 3600Z" />
		<path id="Layer16" fill-rule="evenodd" class="shp4" d="M10051 5621L9957 5621L9957 5463L9954 5463C9911 5571 9777 5645 9655 5645C9401 5645 9279 5441 9279 5206C9279 4971 9401 4766 9655 4766C9780 4766 9902 4829 9945 4948L9949 4948L9949 4472L10051 4472L10051 5621ZM9656 5559C9874 5559 9950 5377 9950 5205C9950 5033 9874 4851 9656 4851C9462 4851 9382 5033 9382 5205C9382 5377 9462 5559 9656 5559Z" />
		<path id="Layer17" fill-rule="evenodd" class="shp4" d="M10232 5232C10233 5380 10311 5559 10507 5559C10657 5559 10737 5473 10770 5347L10872 5347C10829 5536 10719 5645 10507 5645C10242 5645 10129 5442 10129 5206C10129 4988 10242 4766 10507 4766C10777 4766 10883 4999 10875 5233L10233 5233L10232 5232ZM10773 5147C10768 4994 10672 4851 10506 4851C10340 4851 10247 4996 10231 5147L10773 5147Z" />
		<path id="Layer18" class="shp4" d="M11456 5239C11456 5392 11577 5451 11713 5451C11802 5451 11939 5426 11939 5308C11939 5184 11765 5163 11595 5118C11423 5073 11249 5007 11249 4792C11249 4557 11473 4444 11683 4444C11924 4444 12146 4548 12146 4814L11899 4814C11890 4676 11792 4641 11670 4641C11589 4641 11495 4674 11495 4771C11495 4859 11550 4871 11840 4945C11925 4966 12184 5019 12184 5280C12184 5491 12017 5648 11703 5648C11446 5648 11207 5522 11210 5239L11456 5239Z" />
		<path id="Layer19" fill-rule="evenodd" class="shp4" d="M12203 5043L12203.06 5043C12203.04 5043.33 12203.02 5043.67 12203 5044L12203 5043ZM12597 4765C12765 4765 12965 4802 12965 5002L12965 5435C12965 5511 12973 5586 12994 5620L12761 5620C12753 5594 12746 5567 12744 5539C12671 5615 12564 5642 12462 5642C12304 5642 12176 5563 12176 5393C12176 5204 12319 5159 12462 5140C12602 5119 12735 5124 12735 5030C12735 4932 12667 4917 12586 4917C12498 4917 12442 4952 12433 5043L12203.06 5043C12216.6 4829.8 12409.29 4765 12597 4765ZM12735 5213C12696 5247 12614 5249 12543 5261C12472 5276 12407 5299 12407 5383C12407 5469 12474 5490 12548 5490C12728 5490 12735 5348 12735 5298L12735 5213Z" />
		<path id="Layer20" class="shp4" d="M13047 5620L13278 5620L13278 4471L13047 4471L13047 5620Z" />
		<path id="Layer21" class="shp4" d="M14142 5621L13923 5621L13923 5505L13918 5505C13859 5599 13759 5643 13662 5643C13417 5643 13356 5507 13356 5301L13356 4789L13586 4789L13586 5259C13586 5395 13626 5463 13734 5463C13859 5463 13913 5394 13913 5225L13913 4789L14144 4789L14144 5621L14142 5621Z" />
		<path id="Layer22" fill-rule="evenodd" class="shp4" d="M14815 5513L14815 5514L14816 5514L14815 5513ZM14813 5514C14759 5605 14665 5643 14558 5643C14305 5643 14182 5427 14182 5197C14182 4973 14307 4766 14552 4766C14651 4766 14749 4808 14801 4890L14804 4890L14804 4471L15034 4471L15034 5620L14815 5620L14815 5514L14813 5514ZM14614 4938C14464 4938 14412 5067 14412 5204C14412 5335 14472 5471 14614 5471C14767 5471 14813 5339 14813 5203C14813 5068 14764 4939 14614 4939L14614 4938Z" />
		<path id="Layer23" fill-rule="evenodd" class="shp4" d="M15488 4471L16011 4471C16300 4471 16412 4653 16412 4840C16412 5027 16300 5209 16011 5209L15743 5209L15743 5621L15488 5621L15488 4471ZM15743 5012L15941 5012C16060 5012 16164 4987 16164 4839C16164 4693 16059 4667 15941 4667L15743 4667L15743 5012Z" />
		<path id="Layer24" class="shp4" d="M16856 4685L16696 4685L16851 4456L17106 4456L16856 4685ZM17211 5620L16992 5620L16992 5504L16987 5504C16929 5598 16828 5642 16731 5642C16486 5642 16425 5506 16425 5299L16425 4788L16655 4788L16655 5258C16655 5394 16696 5462 16803 5462C16928 5462 16981 5393 16981 5224L16981 4788L17211 4788L17211 5620Z" />
		<path id="Layer25" fill-rule="evenodd" class="shp4" d="M17289 4471L17518 4471L17518 4890L17522 4890C17578 4805 17683 4766 17787 4766C17953 4766 18134 4900 18134 5204C18134 5510 17954 5643 17787 5643C17663 5643 17561 5606 17511 5514L17508 5514L17508 5621L17289 5621L17289 4471ZM17707 4938C17571 4938 17511 5066 17511 5205C17511 5343 17571 5470 17707 5470C17843 5470 17903 5343 17903 5205C17903 5065 17843 4938 17707 4938Z" />
		<path id="Layer26" class="shp4" d="M18182 5620L18413 5620L18413 4471L18182 4471L18182 5620Z" />
		<path id="Layer27" class="shp4" d="M18493 4788L18723 4788L18723 5620L18493 5620L18493 4788ZM18723 4659L18493 4659L18493 4470L18723 4470L18723 4659Z" />
		<path id="Layer28" class="shp4" d="M19366 5081C19352 4988 19292 4938 19196 4938C19048 4938 19000 5086 19000 5209C19000 5328 19047 5471 19191 5471C19298 5471 19360 5404 19374 5302L19596 5302C19567 5522 19413 5643 19192 5643C18939 5643 18768 5466 18768 5217C18768 4958 18924 4766 19196 4766C19394 4766 19576 4869 19591 5082L19365 5082L19366 5081Z" />
		<path id="Layer29" fill-rule="evenodd" class="shp4" d="M19613 5043L19613.07 5043C19613.04 5043.33 19613.02 5043.67 19613 5044L19613 5043ZM20008 4765C20174 4765 20377 4802 20377 5002L20377 5435C20377 5511 20384 5586 20405 5620L20172 5620C20163 5594 20158 5567 20156 5539C20083 5615 19976 5642 19874 5642C19715 5642 19588 5563 19588 5393C19588 5204 19731 5159 19874 5140C20014 5119 20146 5124 20146 5030C20146 4932 20078 4917 19997 4917C19909 4917 19853 4952 19844 5043L19613.07 5043C19627.6 4829.8 19820.29 4765 20008 4765ZM20145 5213C20107 5247 20025 5249 19954 5261C19882 5276 19818 5299 19818 5383C19818 5469 19885 5490 19959 5490C20139 5490 20145 5348 20145 5298L20145 5213Z" />
		<path id="Layer30" class="shp4" d="M8331 5736L8447 5736L8447 -4L8331 -4L8331 5736Z" />
	</g>
</svg>